<svg width="16" height="16" viewBox="0 0 16 16" fill="none" xmlns="http://www.w3.org/2000/svg">
<path fill-rule="evenodd" clip-rule="evenodd" d="M1.3335 6.66667C1.3335 4.08934 3.42283 2 6.00016 2H10.0002C12.5775 2 14.6668 4.08934 14.6668 6.66667C14.6668 7.77124 13.7714 8.66667 12.6668 8.66667H3.3335C2.22893 8.66667 1.3335 7.77124 1.3335 6.66667ZM6.00016 3.33333H10.0002C11.8411 3.33333 13.3335 4.82572 13.3335 6.66667C13.3335 7.03486 13.035 7.33333 12.6668 7.33333H3.3335C2.96531 7.33333 2.66683 7.03486 2.66683 6.66667C2.66683 4.82572 4.15921 3.33333 6.00016 3.33333Z" fill="#777E91"/>
<path fill-rule="evenodd" clip-rule="evenodd" d="M14.6668 12C14.6668 13.1046 13.7714 14 12.6668 14H3.3335C2.22893 14 1.3335 13.1046 1.3335 12C1.3335 10.8954 2.22893 10 3.3335 10H12.6668C13.7714 10 14.6668 10.8954 14.6668 12ZM12.6668 12.6667H3.3335C2.96531 12.6667 2.66683 12.3682 2.66683 12C2.66683 11.6318 2.96531 11.3333 3.3335 11.3333H12.6668C13.035 11.3333 13.3335 11.6318 13.3335 12C13.3335 12.3682 13.035 12.6667 12.6668 12.6667Z" fill="#777E91"/>
<path fill-rule="evenodd" clip-rule="evenodd" d="M13.3332 8.66665H2.6665C2.29831 8.66665 1.99984 8.96512 1.99984 9.33331C1.99984 9.7015 2.29831 9.99998 2.6665 9.99998H13.3332C13.7014 9.99998 13.9998 9.7015 13.9998 9.33331C13.9998 8.96512 13.7014 8.66665 13.3332 8.66665ZM2.6665 7.33331C1.56193 7.33331 0.666504 8.22874 0.666504 9.33331C0.666504 10.4379 1.56193 11.3333 2.6665 11.3333H13.3332C14.4377 11.3333 15.3332 10.4379 15.3332 9.33331C15.3332 8.22874 14.4377 7.33331 13.3332 7.33331H2.6665Z" fill="#777E91"/>
<path d="M5.99984 5.33335C5.99984 5.70154 5.70136 6.00002 5.33317 6.00002C4.96498 6.00002 4.6665 5.70154 4.6665 5.33335C4.6665 4.96516 4.96498 4.66669 5.33317 4.66669C5.70136 4.66669 5.99984 4.96516 5.99984 5.33335Z" fill="#777E91"/>
<path d="M8.6665 5.33335C8.6665 5.70154 8.36803 6.00002 7.99984 6.00002C7.63165 6.00002 7.33317 5.70154 7.33317 5.33335C7.33317 4.96516 7.63165 4.66669 7.99984 4.66669C8.36803 4.66669 8.6665 4.96516 8.6665 5.33335Z" fill="#777E91"/>
<path d="M10.6665 6.00002C11.0347 6.00002 11.3332 5.70154 11.3332 5.33335C11.3332 4.96516 11.0347 4.66669 10.6665 4.66669C10.2983 4.66669 9.99984 4.96516 9.99984 5.33335C9.99984 5.70154 10.2983 6.00002 10.6665 6.00002Z" fill="#777E91"/>
</svg>
