<svg width="16" height="16" viewBox="0 0 16 16" fill="none" xmlns="http://www.w3.org/2000/svg">
<path d="M4.00016 14.6667C4.36835 14.6667 4.66683 14.3682 4.66683 14H3.3335C3.3335 14.3682 3.63197 14.6667 4.00016 14.6667Z" fill="#777E91"/>
<path d="M12.0002 14.6667C12.3684 14.6667 12.6668 14.3682 12.6668 14H11.3335C11.3335 14.3682 11.632 14.6667 12.0002 14.6667Z" fill="#777E91"/>
<path fill-rule="evenodd" clip-rule="evenodd" d="M12.6668 8.66665H3.3335C2.96531 8.66665 2.66683 8.96512 2.66683 9.33331V12C2.66683 12.3682 2.96531 12.6666 3.3335 12.6666H12.6668C13.035 12.6666 13.3335 12.3682 13.3335 12V9.33331C13.3335 8.96512 13.035 8.66665 12.6668 8.66665ZM3.3335 7.33331C2.22893 7.33331 1.3335 8.22874 1.3335 9.33331V12C1.3335 13.1045 2.22893 14 3.3335 14H12.6668C13.7714 14 14.6668 13.1045 14.6668 12V9.33331C14.6668 8.22874 13.7714 7.33331 12.6668 7.33331H3.3335Z" fill="#777E91"/>
<path d="M11.3333 1.33331C10.9651 1.33331 10.6667 1.63179 10.6667 1.99998V7.33331H12V1.99998C12 1.63179 11.7015 1.33331 11.3333 1.33331Z" fill="#777E91"/>
<path d="M4.66667 3.99998C4.29848 3.99998 4 4.29846 4 4.66665V7.33331H5.33333V4.66665C5.33333 4.29846 5.03486 3.99998 4.66667 3.99998Z" fill="#777E91"/>
<path d="M4.66667 10C4.29848 10 4 10.2985 4 10.6667C4 11.0349 4.29848 11.3333 4.66667 11.3333C5.03486 11.3333 5.33333 11.0349 5.33333 10.6667C5.33333 10.2985 5.03486 10 4.66667 10Z" fill="#777E91"/>
<path d="M7.33333 10C6.96514 10 6.66667 10.2985 6.66667 10.6667C6.66667 11.0349 6.96514 11.3333 7.33333 11.3333H11.3333C11.7015 11.3333 12 11.0349 12 10.6667C12 10.2985 11.7015 10 11.3333 10H7.33333Z" fill="#777E91"/>
</svg>
