<svg width="12" height="12" viewBox="0 0 12 12" fill="none" xmlns="http://www.w3.org/2000/svg">
<path d="M10.0968 6.97508C9.72239 7.38795 9.47735 8.18798 9.55132 8.75192L9.88967 11.2991C9.96439 11.8635 9.62376 12.1245 9.13255 11.8801L6.91315 10.7743C6.42193 10.5292 5.62043 10.5327 5.13035 10.7815L2.92044 11.9054C2.43074 12.1541 2.08859 11.8951 2.15915 11.3312L2.47891 8.78079C2.54947 8.21645 2.29874 7.41879 1.92131 7.00869L0.216654 5.15474C-0.161147 4.74464 -0.0317994 4.32346 0.50304 4.21945L2.9193 3.74964C3.45414 3.64563 4.10126 3.14932 4.35806 2.64668L5.51536 0.377872C5.7714 -0.124768 6.19396 -0.125955 6.45342 0.374313L7.62741 2.63362C7.88762 3.13389 8.53777 3.62506 9.07413 3.72433L11.4934 4.17556C12.029 4.27521 12.1614 4.6952 11.787 5.10847L10.0968 6.97508Z" fill="#FFD166"/>
</svg>
